<svg width="881" height="146" viewBox="0 0 881 146" fill="none" xmlns="http://www.w3.org/2000/svg">
<path d="M36.1607 60.7321H48.2143V72.7857H36.1607V60.7321ZM36.1607 48.6786H48.2143V60.7321H36.1607V48.6786ZM48.2143 48.6786H60.2679V60.7321H48.2143V48.6786ZM48.2143 60.7321H60.2679V72.7857H48.2143V60.7321ZM48.2143 72.7857H60.2679V84.8393H48.2143V72.7857ZM36.1607 72.7857H48.2143V84.8393H36.1607V72.7857ZM36.1607 24.5714H48.2143V36.625H36.1607V24.5714ZM36.1607 36.625H48.2143V48.6786H36.1607V36.625ZM24.1071 48.6786H36.1607V60.7321H24.1071V48.6786ZM24.1071 36.625H36.1607V48.6786H24.1071V36.625ZM24.1071 24.5714H36.1607V36.625H24.1071V24.5714ZM0 0.46429H12.0536V12.5179H0V0.46429ZM12.0536 0.46429H24.1071V12.5179H12.0536V0.46429ZM24.1071 0.46429H36.1607V12.5179H24.1071V0.46429ZM24.1071 12.5179H36.1607V24.5714H24.1071V12.5179ZM12.0536 12.5179H24.1071V24.5714H12.0536V12.5179ZM0 12.5179H12.0536V24.5714H0V12.5179ZM0 24.5714H12.0536V36.625H0V24.5714ZM12.0536 24.5714H24.1071V36.625H12.0536V24.5714ZM12.0536 36.625H24.1071V48.6786H12.0536V36.625ZM12.0536 48.6786H24.1071V60.7321H12.0536V48.6786ZM0 48.6786H12.0536V60.7321H0V48.6786ZM0 36.625H12.0536V48.6786H0V36.625ZM0 60.7321H12.0536V72.7857H0V60.7321ZM12.0536 60.7321H24.1071V72.7857H12.0536V60.7321ZM12.0536 72.7857H24.1071V84.8393H12.0536V72.7857ZM12.0536 84.8393H24.1071V96.8929H12.0536V84.8393ZM12.0536 96.8929H24.1071V108.946H12.0536V96.8929ZM12.0536 108.946H24.1071V121H12.0536V108.946ZM0 108.946H12.0536V121H0V108.946ZM0 96.8929H12.0536V108.946H0V96.8929ZM0 84.8393H12.0536V96.8929H0V84.8393ZM0 72.7857H12.0536V84.8393H0V72.7857ZM48.2143 84.8393H60.2679V96.8929H48.2143V84.8393ZM48.2143 96.8929H60.2679V108.946H48.2143V96.8929ZM60.2679 84.8393H72.3214V96.8929H60.2679V84.8393ZM60.2679 72.7857H72.3214V84.8393H60.2679V72.7857ZM60.2679 96.8929H72.3214V108.946H60.2679V96.8929ZM60.2679 108.946H72.3214V121H60.2679V108.946ZM72.3214 108.946H84.375V121H72.3214V108.946ZM84.375 108.946H96.4286V121H84.375V108.946ZM84.375 96.8929H96.4286V108.946H84.375V96.8929ZM84.375 84.8393H96.4286V96.8929H84.375V84.8393ZM72.3214 84.8393H84.375V96.8929H72.3214V84.8393ZM72.3214 96.8929H84.375V108.946H72.3214V96.8929ZM72.3214 72.7857H84.375V84.8393H72.3214V72.7857ZM84.375 60.7321H96.4286V72.7857H84.375V60.7321ZM84.375 48.6786H96.4286V60.7321H84.375V48.6786ZM84.375 72.7857H96.4286V84.8393H84.375V72.7857ZM72.3214 60.7321H84.375V72.7857H72.3214V60.7321ZM72.3214 48.6786H84.375V60.7321H72.3214V48.6786ZM72.3214 36.625H84.375V48.6786H72.3214V36.625ZM84.375 36.625H96.4286V48.6786H84.375V36.625ZM84.375 24.5714H96.4286V36.625H84.375V24.5714ZM72.3214 0.46429H84.375V12.5179H72.3214V0.46429ZM84.375 0.46429H96.4286V12.5179H84.375V0.46429ZM84.375 12.5179H96.4286V24.5714H84.375V12.5179ZM72.3214 12.5179H84.375V24.5714H72.3214V12.5179ZM72.3214 24.5714H84.375V36.625H72.3214V24.5714ZM132.652 24.5714H144.706V36.625H132.652V24.5714ZM120.598 24.5714H132.652V36.625H120.598V24.5714ZM120.598 36.625H132.652V48.6786H120.598V36.625ZM132.652 36.625H144.706V48.6786H132.652V36.625ZM144.706 24.5714H156.759V36.625H144.706V24.5714ZM156.759 24.5714H168.813V36.625H156.759V24.5714ZM168.813 24.5714H180.866V36.625H168.813V24.5714ZM168.813 36.625H180.866V48.6786H168.813V36.625ZM156.759 36.625H168.813V48.6786H156.759V36.625ZM180.866 36.625H192.92V48.6786H180.866V36.625ZM180.866 48.6786H192.92V60.7321H180.866V48.6786ZM180.866 96.8929H192.92V108.946H180.866V96.8929ZM168.813 96.8929H180.866V108.946H168.813V96.8929ZM168.813 48.6786H180.866V60.7321H168.813V48.6786ZM156.759 96.8929H168.813V108.946H156.759V96.8929ZM168.813 108.946H180.866V121H168.813V108.946ZM156.759 108.946H168.813V121H156.759V108.946ZM144.706 108.946H156.759V121H144.706V108.946ZM132.652 108.946H144.706V121H132.652V108.946ZM120.598 108.946H132.652V121H120.598V108.946ZM120.598 96.8929H132.652V108.946H120.598V96.8929ZM132.652 96.8929H144.706V108.946H132.652V96.8929ZM120.598 84.8393H132.652V96.8929H120.598V84.8393ZM108.545 96.8929H120.598V108.946H108.545V96.8929ZM108.545 84.8393H120.598V96.8929H108.545V84.8393ZM108.545 72.7857H120.598V84.8393H108.545V72.7857ZM108.545 60.7321H120.598V72.7857H108.545V60.7321ZM108.545 48.6786H120.598V60.7321H108.545V48.6786ZM108.545 36.625H120.598V48.6786H108.545V36.625ZM120.598 48.6786H132.652V60.7321H120.598V48.6786ZM120.598 60.7321H132.652V72.7857H120.598V60.7321ZM120.598 72.7857H132.652V84.8393H120.598V72.7857ZM144.706 96.8929H156.759V108.946H144.706V96.8929ZM144.706 36.625H156.759V48.6786H144.706V36.625ZM168.813 60.7321H180.866V72.7857H168.813V60.7321ZM180.866 60.7321H192.92V72.7857H180.866V60.7321ZM132.652 72.7857H144.706V84.8393H132.652V72.7857ZM144.706 72.7857H156.759V84.8393H144.706V72.7857ZM156.759 72.7857H168.813V84.8393H156.759V72.7857ZM168.813 72.7857H180.866V84.8393H168.813V72.7857ZM180.866 72.7857H192.92V84.8393H180.866V72.7857ZM156.759 60.7321H168.813V72.7857H156.759V60.7321ZM144.706 60.7321H156.759V72.7857H144.706V60.7321ZM132.652 60.7321H144.706V72.7857H132.652V60.7321ZM229.112 24.5714H241.166V36.625H229.112V24.5714ZM217.058 24.5714H229.112V36.625H217.058V24.5714ZM217.058 36.625H229.112V48.6786H217.058V36.625ZM229.112 36.625H241.166V48.6786H229.112V36.625ZM241.166 24.5714H253.219V36.625H241.166V24.5714ZM253.219 24.5714H265.273V36.625H253.219V24.5714ZM265.273 24.5714H277.326V36.625H265.273V24.5714ZM265.273 36.625H277.326V48.6786H265.273V36.625ZM253.219 36.625H265.273V48.6786H253.219V36.625ZM277.326 36.625H289.38V48.6786H277.326V36.625ZM277.326 48.6786H289.38V60.7321H277.326V48.6786ZM277.326 96.8929H289.38V108.946H277.326V96.8929ZM265.273 96.8929H277.326V108.946H265.273V96.8929ZM265.273 48.6786H277.326V60.7321H265.273V48.6786ZM253.219 96.8929H265.273V108.946H253.219V96.8929ZM265.273 108.946H277.326V121H265.273V108.946ZM253.219 108.946H265.273V121H253.219V108.946ZM241.166 108.946H253.219V121H241.166V108.946ZM229.112 108.946H241.166V121H229.112V108.946ZM217.058 108.946H229.112V121H217.058V108.946ZM217.058 96.8929H229.112V108.946H217.058V96.8929ZM229.112 96.8929H241.166V108.946H229.112V96.8929ZM217.058 84.8393H229.112V96.8929H217.058V84.8393ZM205.005 96.8929H217.058V108.946H205.005V96.8929ZM205.005 84.8393H217.058V96.8929H205.005V84.8393ZM205.005 72.7857H217.058V84.8393H205.005V72.7857ZM205.005 60.7321H217.058V72.7857H205.005V60.7321ZM205.005 48.6786H217.058V60.7321H205.005V48.6786ZM205.005 36.625H217.058V48.6786H205.005V36.625ZM217.058 48.6786H229.112V60.7321H217.058V48.6786ZM217.058 60.7321H229.112V72.7857H217.058V60.7321ZM217.058 72.7857H229.112V84.8393H217.058V72.7857ZM241.166 96.8929H253.219V108.946H241.166V96.8929ZM241.166 36.625H253.219V48.6786H241.166V36.625ZM265.273 60.7321H277.326V72.7857H265.273V60.7321ZM277.326 60.7321H289.38V72.7857H277.326V60.7321ZM229.112 72.7857H241.166V84.8393H229.112V72.7857ZM241.166 72.7857H253.219V84.8393H241.166V72.7857ZM253.219 72.7857H265.273V84.8393H253.219V72.7857ZM265.273 72.7857H277.326V84.8393H265.273V72.7857ZM277.326 72.7857H289.38V84.8393H277.326V72.7857ZM253.219 60.7321H265.273V72.7857H253.219V60.7321ZM241.166 60.7321H253.219V72.7857H241.166V60.7321ZM229.112 60.7321H241.166V72.7857H229.112V60.7321ZM385.84 36.625V48.6786H373.786V36.625H385.84ZM385.84 24.5714V36.625H373.786V24.5714H385.84ZM373.786 24.5714V36.625H361.733V24.5714H373.786ZM373.786 36.625V48.6786H361.733V36.625H373.786ZM373.786 48.6786V60.7321H361.733V48.6786H373.786ZM373.786 60.7321V72.7857H361.733V60.7321H373.786ZM373.786 72.7857V84.8393H361.733V72.7857H373.786ZM385.84 72.7857V84.8393H373.786V72.7857H385.84ZM385.84 60.7321V72.7857H373.786V60.7321H385.84ZM385.84 48.6786V60.7321H373.786V48.6786H385.84ZM385.84 84.8393V96.8929H373.786V84.8393H385.84ZM373.786 84.8393V96.8929H361.733V84.8393H373.786ZM373.786 96.8929V108.946H361.733V96.8929H373.786ZM373.786 108.946V121H361.733V108.946H373.786ZM385.84 108.946V121H373.786V108.946H385.84ZM385.84 96.8929V108.946H373.786V96.8929H385.84ZM325.572 108.946V121H313.518V108.946H325.572ZM313.518 96.8929V108.946H301.465V96.8929H313.518ZM313.518 84.8393V96.8929H301.465V84.8393H313.518ZM313.518 72.7857V84.8393H301.465V72.7857H313.518ZM313.518 60.7321V72.7857H301.465V60.7321H313.518ZM313.518 48.6786V60.7321H301.465V48.6786H313.518ZM313.518 36.625V48.6786H301.465V36.625H313.518ZM325.572 60.7321V72.7857H313.518V60.7321H325.572ZM325.572 72.7857V84.8393H313.518V72.7857H325.572ZM325.572 84.8393V96.8929H313.518V84.8393H325.572ZM325.572 96.8929V108.946H313.518V96.8929H325.572ZM325.572 48.6786V60.7321H313.518V48.6786H325.572ZM337.626 36.625V48.6786H325.572V36.625H337.626ZM337.626 24.5714V36.625H325.572V24.5714H337.626ZM325.572 24.5714V36.625H313.518V24.5714H325.572ZM325.572 36.625V48.6786H313.518V36.625H325.572ZM349.679 24.5714V36.625H337.626V24.5714H349.679ZM385.84 0.46429V12.5179H373.786V0.46429H385.84ZM373.786 0.46429V12.5179H361.733V0.46429H373.786ZM373.786 12.5179V24.5714H361.733V12.5179H373.786ZM385.84 12.5179V24.5714H373.786V12.5179H385.84ZM349.679 108.946V121H337.626V108.946H349.679ZM337.626 108.946V121H325.572V108.946H337.626ZM337.626 96.8929V108.946H325.572V96.8929H337.626ZM349.679 96.8929V108.946H337.626V96.8929H349.679ZM361.733 96.8929V108.946H349.679V96.8929H361.733ZM361.733 24.5714V36.625H349.679V24.5714H361.733ZM361.733 36.625V48.6786H349.679V36.625H361.733ZM349.679 36.625V48.6786H337.626V36.625H349.679ZM397.925 24.5714H409.978V36.625H397.925V24.5714ZM409.978 24.5714H422.032V36.625H409.978V24.5714ZM409.978 36.625H422.032V48.6786H409.978V36.625ZM409.978 48.6786H422.032V60.7321H409.978V48.6786ZM409.978 60.7321H422.032V72.7857H409.978V60.7321ZM397.925 48.6786H409.978V60.7321H397.925V48.6786ZM397.925 36.625H409.978V48.6786H397.925V36.625ZM397.925 60.7321H409.978V72.7857H397.925V60.7321ZM397.925 72.7857H409.978V84.8393H397.925V72.7857ZM409.978 72.7857H422.032V84.8393H409.978V72.7857ZM409.978 84.8393H422.032V96.8929H409.978V84.8393ZM422.032 84.8393H434.086V96.8929H422.032V84.8393ZM422.032 96.8929H434.086V108.946H422.032V96.8929ZM434.086 96.8929H446.139V108.946H434.086V96.8929ZM446.139 96.8929H458.193V108.946H446.139V96.8929ZM446.139 84.8393H458.193V96.8929H446.139V84.8393ZM446.139 72.7857H458.193V84.8393H446.139V72.7857ZM458.193 72.7857H470.246V84.8393H458.193V72.7857ZM458.193 84.8393H470.246V96.8929H458.193V84.8393ZM458.193 60.7321H470.246V72.7857H458.193V60.7321ZM446.139 60.7321H458.193V72.7857H446.139V60.7321ZM446.139 24.5714H458.193V36.625H446.139V24.5714ZM458.193 24.5714H470.246V36.625H458.193V24.5714ZM458.193 36.625H470.246V48.6786H458.193V36.625ZM458.193 48.6786H470.246V60.7321H458.193V48.6786ZM446.139 36.625H458.193V48.6786H446.139V36.625ZM446.139 48.6786H458.193V60.7321H446.139V48.6786ZM434.086 108.946H446.139V121H434.086V108.946ZM422.032 108.946H434.086V121H422.032V108.946ZM422.032 121H434.086V133.054H422.032V121ZM409.978 121H422.032V133.054H409.978V121ZM409.978 108.946H422.032V121H409.978V108.946ZM409.978 133.054H422.032V145.107H409.978V133.054ZM397.925 133.054H409.978V145.107H397.925V133.054ZM397.925 121H409.978V133.054H397.925V121ZM434.086 84.8393H446.139V96.8929H434.086V84.8393ZM422.032 72.7857H434.086V84.8393H422.032V72.7857ZM506.407 0.46429H518.461V12.5179H506.407V0.46429ZM494.353 0.46429H506.407V12.5179H494.353V0.46429ZM494.353 12.5179H506.407V24.5714H494.353V12.5179ZM506.407 12.5179H518.461V24.5714H506.407V12.5179ZM518.461 12.5179H530.514V24.5714H518.461V12.5179ZM518.461 0.46429H530.514V12.5179H518.461V0.46429ZM530.514 0.46429H542.568V12.5179H530.514V0.46429ZM542.568 0.46429H554.621V12.5179H542.568V0.46429ZM542.568 12.5179H554.621V24.5714H542.568V12.5179ZM530.514 12.5179H542.568V24.5714H530.514V12.5179ZM542.568 24.5714H554.621V36.625H542.568V24.5714ZM554.621 12.5179H566.675V24.5714H554.621V12.5179ZM554.621 24.5714H566.675V36.625H554.621V24.5714ZM554.621 84.8393H566.675V96.8929H554.621V84.8393ZM554.621 96.8929H566.675V108.946H554.621V96.8929ZM542.568 96.8929H554.621V108.946H542.568V96.8929ZM542.568 84.8393H554.621V96.8929H542.568V84.8393ZM530.514 96.8929H542.568V108.946H530.514V96.8929ZM542.568 108.946H554.621V121H542.568V108.946ZM530.514 108.946H542.568V121H530.514V108.946ZM518.461 108.946H530.514V121H518.461V108.946ZM518.461 96.8929H530.514V108.946H518.461V96.8929ZM506.407 108.946H518.461V121H506.407V108.946ZM494.353 108.946H506.407V121H494.353V108.946ZM494.353 96.8929H506.407V108.946H494.353V96.8929ZM506.407 96.8929H518.461V108.946H506.407V96.8929ZM506.407 84.8393H518.461V96.8929H506.407V84.8393ZM494.353 84.8393H506.407V96.8929H494.353V84.8393ZM482.3 96.8929H494.353V108.946H482.3V96.8929ZM482.3 84.8393H494.353V96.8929H482.3V84.8393ZM482.3 72.7857H494.353V84.8393H482.3V72.7857ZM482.3 60.7321H494.353V72.7857H482.3V60.7321ZM482.3 48.6786H494.353V60.7321H482.3V48.6786ZM482.3 36.625H494.353V48.6786H482.3V36.625ZM482.3 24.5714H494.353V36.625H482.3V24.5714ZM494.353 24.5714H506.407V36.625H494.353V24.5714ZM482.3 12.5179H494.353V24.5714H482.3V12.5179ZM506.407 24.5714H518.461V36.625H506.407V24.5714ZM494.353 36.625H506.407V48.6786H494.353V36.625ZM494.353 48.6786H506.407V60.7321H494.353V48.6786ZM494.353 60.7321H506.407V72.7857H494.353V60.7321ZM494.353 72.7857H506.407V84.8393H494.353V72.7857ZM578.76 0.46429H590.813V12.5179H578.76V0.46429ZM590.813 0.46429H602.867V12.5179H590.813V0.46429ZM590.813 12.5179H602.867V24.5714H590.813V12.5179ZM590.813 24.5714H602.867V36.625H590.813V24.5714ZM590.813 36.625H602.867V48.6786H590.813V36.625ZM590.813 48.6786H602.867V60.7321H590.813V48.6786ZM590.813 60.7321H602.867V72.7857H590.813V60.7321ZM578.76 60.7321H590.813V72.7857H578.76V60.7321ZM578.76 72.7857H590.813V84.8393H578.76V72.7857ZM578.76 84.8393H590.813V96.8929H578.76V84.8393ZM578.76 96.8929H590.813V108.946H578.76V96.8929ZM578.76 108.946H590.813V121H578.76V108.946ZM590.813 108.946H602.867V121H590.813V108.946ZM590.813 96.8929H602.867V108.946H590.813V96.8929ZM590.813 84.8393H602.867V96.8929H590.813V84.8393ZM590.813 72.7857H602.867V84.8393H590.813V72.7857ZM578.76 48.6786H590.813V60.7321H578.76V48.6786ZM578.76 36.625H590.813V48.6786H578.76V36.625ZM578.76 24.5714H590.813V36.625H578.76V24.5714ZM578.76 12.5179H590.813V24.5714H578.76V12.5179ZM687.336 121H675.283V108.946H687.336V121ZM687.336 108.946H675.283V96.8929H687.336V108.946ZM675.283 108.946H663.229V96.8929H675.283V108.946ZM663.229 121H651.175V108.946H663.229V121ZM651.175 121H639.122V108.946H651.175V121ZM639.122 121H627.068V108.946H639.122V121ZM639.122 108.946H627.068V96.8929H639.122V108.946ZM651.175 108.946H639.122V96.8929H651.175V108.946ZM627.068 108.946H615.015V96.8929H627.068V108.946ZM627.068 96.8929H615.015V84.8393H627.068V96.8929ZM627.068 48.6786H615.015V36.625H627.068V48.6786ZM639.122 48.6786H627.068V36.625H639.122V48.6786ZM639.122 96.8929H627.068V84.8393H639.122V96.8929ZM651.175 48.6786H639.122V36.625H651.175V48.6786ZM639.122 36.625H627.068V24.5714H639.122V36.625ZM651.175 36.625H639.122V24.5714H651.175V36.625ZM663.229 36.625H651.175V24.5714H663.229V36.625ZM675.283 36.625H663.229V24.5714H675.283V36.625ZM687.336 36.625H675.283V24.5714H687.336V36.625ZM687.336 48.6786H675.283V36.625H687.336V48.6786ZM675.283 48.6786H663.229V36.625H675.283V48.6786ZM687.336 60.7321H675.283V48.6786H687.336V60.7321ZM699.39 48.6786H687.336V36.625H699.39V48.6786ZM699.39 60.7321H687.336V48.6786H699.39V60.7321ZM699.39 72.7857H687.336V60.7321H699.39V72.7857ZM699.39 84.8393H687.336V72.7857H699.39V84.8393ZM699.39 96.8929H687.336V84.8393H699.39V96.8929ZM699.39 108.946H687.336V96.8929H699.39V108.946ZM687.336 96.8929H675.283V84.8393H687.336V96.8929ZM687.336 84.8393H675.283V72.7857H687.336V84.8393ZM687.336 72.7857H675.283V60.7321H687.336V72.7857ZM663.229 48.6786H651.175V36.625H663.229V48.6786ZM663.229 108.946H651.175V96.8929H663.229V108.946ZM687.336 108.946H699.39V121H687.336V108.946ZM663.229 60.7321H675.283V72.7857H663.229V60.7321ZM651.175 60.7321H663.229V72.7857H651.175V60.7321ZM639.122 60.7321H651.175V72.7857H639.122V60.7321ZM627.068 60.7321H639.122V72.7857H627.068V60.7321ZM615.015 72.7857H627.068V84.8393H615.015V72.7857ZM627.068 72.7857H639.122V84.8393H627.068V72.7857ZM663.229 72.7857H675.283V84.8393H663.229V72.7857ZM651.175 72.7857H663.229V84.8393H651.175V72.7857ZM639.122 72.7857H651.175V84.8393H639.122V72.7857ZM711.475 36.625H723.528V48.6786H711.475V36.625ZM723.528 48.6786H735.582V60.7321H723.528V48.6786ZM711.475 48.6786H723.528V60.7321H711.475V48.6786ZM711.475 60.7321H723.528V72.7857H711.475V60.7321ZM723.528 60.7321H735.582V72.7857H723.528V60.7321ZM723.528 72.7857H735.582V84.8393H723.528V72.7857ZM735.582 72.7857H747.635V84.8393H735.582V72.7857ZM747.635 72.7857H759.689V84.8393H747.635V72.7857ZM759.689 60.7321H771.742V72.7857H759.689V60.7321ZM747.635 60.7321H759.689V72.7857H747.635V60.7321ZM735.582 60.7321H747.635V72.7857H735.582V60.7321ZM759.689 72.7857H771.742V84.8393H759.689V72.7857ZM771.742 72.7857H783.796V84.8393H771.742V72.7857ZM771.742 84.8393H783.796V96.8929H771.742V84.8393ZM759.689 84.8393H771.742V96.8929H759.689V84.8393ZM759.689 96.8929H771.742V108.946H759.689V96.8929ZM771.742 96.8929H783.796V108.946H771.742V96.8929ZM759.689 108.946H771.742V121H759.689V108.946ZM747.635 96.8929H759.689V108.946H747.635V96.8929ZM735.582 96.8929H747.635V108.946H735.582V96.8929ZM723.528 96.8929H735.582V108.946H723.528V96.8929ZM711.475 96.8929H723.528V108.946H711.475V96.8929ZM723.528 108.946H735.582V121H723.528V108.946ZM735.582 108.946H747.635V121H735.582V108.946ZM747.635 108.946H759.689V121H747.635V108.946ZM771.742 36.625H783.796V48.6786H771.742V36.625ZM759.689 36.625H771.742V48.6786H759.689V36.625ZM759.689 24.5714H771.742V36.625H759.689V24.5714ZM747.635 24.5714H759.689V36.625H747.635V24.5714ZM735.582 24.5714H747.635V36.625H735.582V24.5714ZM723.528 24.5714H735.582V36.625H723.528V24.5714ZM723.528 36.625H735.582V48.6786H723.528V36.625ZM735.582 36.625H747.635V48.6786H735.582V36.625ZM747.635 36.625H759.689V48.6786H747.635V36.625ZM795.85 36.625H807.903V48.6786H795.85V36.625ZM795.85 24.5714H807.903V36.625H795.85V24.5714ZM807.903 24.5714H819.957V36.625H807.903V24.5714ZM807.903 36.625H819.957V48.6786H807.903V36.625ZM807.903 48.6786H819.957V60.7321H807.903V48.6786ZM807.903 60.7321H819.957V72.7857H807.903V60.7321ZM807.903 72.7857H819.957V84.8393H807.903V72.7857ZM795.85 72.7857H807.903V84.8393H795.85V72.7857ZM795.85 60.7321H807.903V72.7857H795.85V60.7321ZM795.85 48.6786H807.903V60.7321H795.85V48.6786ZM795.85 84.8393H807.903V96.8929H795.85V84.8393ZM807.903 84.8393H819.957V96.8929H807.903V84.8393ZM807.903 96.8929H819.957V108.946H807.903V96.8929ZM807.903 108.946H819.957V121H807.903V108.946ZM795.85 108.946H807.903V121H795.85V108.946ZM795.85 96.8929H807.903V108.946H795.85V96.8929ZM856.117 108.946H868.171V121H856.117V108.946ZM868.171 108.946H880.225V121H868.171V108.946ZM868.171 96.8929H880.225V108.946H868.171V96.8929ZM868.171 84.8393H880.225V96.8929H868.171V84.8393ZM868.171 72.7857H880.225V84.8393H868.171V72.7857ZM868.171 60.7321H880.225V72.7857H868.171V60.7321ZM868.171 48.6786H880.225V60.7321H868.171V48.6786ZM868.171 36.625H880.225V48.6786H868.171V36.625ZM856.117 60.7321H868.171V72.7857H856.117V60.7321ZM856.117 72.7857H868.171V84.8393H856.117V72.7857ZM856.117 84.8393H868.171V96.8929H856.117V84.8393ZM856.117 96.8929H868.171V108.946H856.117V96.8929ZM856.117 48.6786H868.171V60.7321H856.117V48.6786ZM819.957 36.625H832.01V48.6786H819.957V36.625ZM832.01 36.625H844.064V48.6786H832.01V36.625ZM844.064 36.625H856.117V48.6786H844.064V36.625ZM844.064 24.5714H856.117V36.625H844.064V24.5714ZM856.117 24.5714H868.171V36.625H856.117V24.5714ZM856.117 36.625H868.171V48.6786H856.117V36.625ZM832.01 24.5714H844.064V36.625H832.01V24.5714ZM795.85 0.46429H807.903V12.5179H795.85V0.46429ZM807.903 0.46429H819.957V12.5179H807.903V0.46429ZM807.903 12.5179H819.957V24.5714H807.903V12.5179ZM795.85 12.5179H807.903V24.5714H795.85V12.5179Z" fill="currentCol"/>
</svg>
